<?xml version="1.0" encoding="UTF-8" standalone="no"?>
<!DOCTYPE svg PUBLIC "-//W3C//DTD SVG 1.1//EN"
 "http://www.w3.org/Graphics/SVG/1.1/DTD/svg11.dtd">
<!-- Generated by graphviz version 2.38.0 (20140413.2041)
 -->
<!-- Title: controllers_diagram Pages: 1 -->
<svg width="567pt" height="506pt"
 viewBox="0.00 0.00 567.50 506.50" xmlns="http://www.w3.org/2000/svg" xmlns:xlink="http://www.w3.org/1999/xlink">
<g id="graph0" class="graph" transform="scale(1 1) rotate(0) translate(199.5 293)">
<title>controllers_diagram</title>
<polygon fill="none" stroke="none" points="-199.5,213.5 -199.5,-293 368,-293 368,213.5 -199.5,213.5"/>
<!-- _diagram_info -->
<g id="node1" class="node"><title>_diagram_info</title>
<text text-anchor="start" x="158" y="-213.6" font-family="Times,serif" font-size="13.00">Controllers diagram</text>
<text text-anchor="start" x="158" y="-199.6" font-family="Times,serif" font-size="13.00">Date: May 03 2017 &#45; 07:36</text>
<text text-anchor="start" x="158" y="-185.6" font-family="Times,serif" font-size="13.00">Migration version: 20170418112049</text>
<text text-anchor="start" x="158" y="-171.6" font-family="Times,serif" font-size="13.00">Generated by RailRoady 1.5.2</text>
<text text-anchor="start" x="158" y="-157.6" font-family="Times,serif" font-size="13.00">http://railroady.prestonlee.com</text>
</g>
<!-- ActivitiesController -->
<g id="node2" class="node"><title>ActivitiesController</title>
<path fill="none" stroke="black" d="M-183.5,-195.5C-183.5,-195.5 -82.5,-195.5 -82.5,-195.5 -76.5,-195.5 -70.5,-201.5 -70.5,-207.5 -70.5,-207.5 -70.5,-276.5 -70.5,-276.5 -70.5,-282.5 -76.5,-288.5 -82.5,-288.5 -82.5,-288.5 -183.5,-288.5 -183.5,-288.5 -189.5,-288.5 -195.5,-282.5 -195.5,-276.5 -195.5,-276.5 -195.5,-207.5 -195.5,-207.5 -195.5,-201.5 -189.5,-195.5 -183.5,-195.5"/>
<text text-anchor="middle" x="-133" y="-273.3" font-family="Times,serif" font-size="14.00">ActivitiesController</text>
<polyline fill="none" stroke="black" points="-195.5,-265.5 -70.5,-265.5 "/>
<text text-anchor="start" x="-187.5" y="-250.3" font-family="Times,serif" font-size="14.00">index</text>
<polyline fill="none" stroke="black" points="-195.5,-242.5 -70.5,-242.5 "/>
<polyline fill="none" stroke="black" points="-195.5,-218.5 -70.5,-218.5 "/>
<text text-anchor="start" x="-187.5" y="-203.3" font-family="Times,serif" font-size="14.00">_layout</text>
</g>
<!-- ProductsController -->
<g id="node3" class="node"><title>ProductsController</title>
<path fill="none" stroke="black" d="M-47.5,119.5C-47.5,119.5 47.5,119.5 47.5,119.5 53.5,119.5 59.5,113.5 59.5,107.5 59.5,107.5 59.5,-81.5 59.5,-81.5 59.5,-87.5 53.5,-93.5 47.5,-93.5 47.5,-93.5 -47.5,-93.5 -47.5,-93.5 -53.5,-93.5 -59.5,-87.5 -59.5,-81.5 -59.5,-81.5 -59.5,107.5 -59.5,107.5 -59.5,113.5 -53.5,119.5 -47.5,119.5"/>
<text text-anchor="middle" x="0" y="-78.3" font-family="Times,serif" font-size="14.00">ProductsController</text>
<polyline fill="none" stroke="black" points="-59.5,-70.5 59.5,-70.5 "/>
<text text-anchor="start" x="-51.5" y="-55.3" font-family="Times,serif" font-size="14.00">create</text>
<text text-anchor="start" x="-51.5" y="-40.3" font-family="Times,serif" font-size="14.00">destroy</text>
<text text-anchor="start" x="-51.5" y="-25.3" font-family="Times,serif" font-size="14.00">edit</text>
<text text-anchor="start" x="-51.5" y="-10.3" font-family="Times,serif" font-size="14.00">index</text>
<text text-anchor="start" x="-51.5" y="4.7" font-family="Times,serif" font-size="14.00">new</text>
<text text-anchor="start" x="-51.5" y="19.7" font-family="Times,serif" font-size="14.00">show</text>
<text text-anchor="start" x="-51.5" y="34.7" font-family="Times,serif" font-size="14.00">update</text>
<polyline fill="none" stroke="black" points="-59.5,42.5 59.5,42.5 "/>
<polyline fill="none" stroke="black" points="-59.5,66.5 59.5,66.5 "/>
<text text-anchor="start" x="-51.5" y="81.7" font-family="Times,serif" font-size="14.00">_layout</text>
<text text-anchor="start" x="-51.5" y="96.7" font-family="Times,serif" font-size="14.00">product_params</text>
<text text-anchor="start" x="-51.5" y="111.7" font-family="Times,serif" font-size="14.00">set_product</text>
</g>
<!-- HomeController -->
<g id="node4" class="node"><title>HomeController</title>
<path fill="none" stroke="black" d="M-183,-76C-183,-76 -101,-76 -101,-76 -95,-76 -89,-82 -89,-88 -89,-88 -89,-158 -89,-158 -89,-164 -95,-170 -101,-170 -101,-170 -183,-170 -183,-170 -189,-170 -195,-164 -195,-158 -195,-158 -195,-88 -195,-88 -195,-82 -189,-76 -183,-76"/>
<text text-anchor="middle" x="-142" y="-154.8" font-family="Times,serif" font-size="14.00">HomeController</text>
<polyline fill="none" stroke="black" points="-195,-147 -89,-147 "/>
<polyline fill="none" stroke="black" points="-195,-123 -89,-123 "/>
<polyline fill="none" stroke="black" points="-195,-99 -89,-99 "/>
<text text-anchor="start" x="-187" y="-83.8" font-family="Times,serif" font-size="14.00">_layout</text>
</g>
<!-- ReportController -->
<g id="node5" class="node"><title>ReportController</title>
<path fill="none" stroke="black" d="M-32.5,-121C-32.5,-121 52.5,-121 52.5,-121 58.5,-121 64.5,-127 64.5,-133 64.5,-133 64.5,-247 64.5,-247 64.5,-253 58.5,-259 52.5,-259 52.5,-259 -32.5,-259 -32.5,-259 -38.5,-259 -44.5,-253 -44.5,-247 -44.5,-247 -44.5,-133 -44.5,-133 -44.5,-127 -38.5,-121 -32.5,-121"/>
<text text-anchor="middle" x="10" y="-243.8" font-family="Times,serif" font-size="14.00">ReportController</text>
<polyline fill="none" stroke="black" points="-44.5,-236 64.5,-236 "/>
<text text-anchor="start" x="-36.5" y="-220.8" font-family="Times,serif" font-size="14.00">daily</text>
<text text-anchor="start" x="-36.5" y="-205.8" font-family="Times,serif" font-size="14.00">monthly</text>
<text text-anchor="start" x="-36.5" y="-190.8" font-family="Times,serif" font-size="14.00">topselling</text>
<text text-anchor="start" x="-36.5" y="-175.8" font-family="Times,serif" font-size="14.00">weekly</text>
<polyline fill="none" stroke="black" points="-44.5,-168 64.5,-168 "/>
<polyline fill="none" stroke="black" points="-44.5,-144 64.5,-144 "/>
<text text-anchor="start" x="-36.5" y="-128.8" font-family="Times,serif" font-size="14.00">_layout</text>
</g>
<!-- SalesController -->
<g id="node6" class="node"><title>SalesController</title>
<path fill="none" stroke="black" d="M102.5,89.5C102.5,89.5 179.5,89.5 179.5,89.5 185.5,89.5 191.5,83.5 191.5,77.5 191.5,77.5 191.5,-111.5 191.5,-111.5 191.5,-117.5 185.5,-123.5 179.5,-123.5 179.5,-123.5 102.5,-123.5 102.5,-123.5 96.5,-123.5 90.5,-117.5 90.5,-111.5 90.5,-111.5 90.5,77.5 90.5,77.5 90.5,83.5 96.5,89.5 102.5,89.5"/>
<text text-anchor="middle" x="141" y="-108.3" font-family="Times,serif" font-size="14.00">SalesController</text>
<polyline fill="none" stroke="black" points="90.5,-100.5 191.5,-100.5 "/>
<text text-anchor="start" x="98.5" y="-85.3" font-family="Times,serif" font-size="14.00">create</text>
<text text-anchor="start" x="98.5" y="-70.3" font-family="Times,serif" font-size="14.00">destroy</text>
<text text-anchor="start" x="98.5" y="-55.3" font-family="Times,serif" font-size="14.00">edit</text>
<text text-anchor="start" x="98.5" y="-40.3" font-family="Times,serif" font-size="14.00">index</text>
<text text-anchor="start" x="98.5" y="-25.3" font-family="Times,serif" font-size="14.00">new</text>
<text text-anchor="start" x="98.5" y="-10.3" font-family="Times,serif" font-size="14.00">show</text>
<text text-anchor="start" x="98.5" y="4.7" font-family="Times,serif" font-size="14.00">update</text>
<polyline fill="none" stroke="black" points="90.5,12.5 191.5,12.5 "/>
<polyline fill="none" stroke="black" points="90.5,36.5 191.5,36.5 "/>
<text text-anchor="start" x="98.5" y="51.7" font-family="Times,serif" font-size="14.00">_layout</text>
<text text-anchor="start" x="98.5" y="66.7" font-family="Times,serif" font-size="14.00">sale_params</text>
<text text-anchor="start" x="98.5" y="81.7" font-family="Times,serif" font-size="14.00">set_sale</text>
</g>
<!-- ApplicationController -->
<g id="node7" class="node"><title>ApplicationController</title>
<path fill="none" stroke="black" d="M102,209C102,209 214,209 214,209 220,209 226,203 226,197 226,197 226,127 226,127 226,121 220,115 214,115 214,115 102,115 102,115 96,115 90,121 90,127 90,127 90,197 90,197 90,203 96,209 102,209"/>
<text text-anchor="middle" x="158" y="130.2" font-family="Times,serif" font-size="14.00">ApplicationController</text>
<polyline fill="none" stroke="black" points="90,138 226,138 "/>
<polyline fill="none" stroke="black" points="90,162 226,162 "/>
<polyline fill="none" stroke="black" points="90,186 226,186 "/>
<text text-anchor="start" x="98" y="201.2" font-family="Times,serif" font-size="14.00">_layout</text>
</g>
</g>
</svg>
