<?xml version="1.0" encoding="UTF-8" standalone="no"?>
<!DOCTYPE svg PUBLIC "-//W3C//DTD SVG 1.1//EN"
 "http://www.w3.org/Graphics/SVG/1.1/DTD/svg11.dtd">
<!-- Generated by graphviz version 2.38.0 (20140413.2041)
 -->
<!-- Title: models_diagram Pages: 1 -->
<svg width="1147pt" height="528pt"
 viewBox="0.00 0.00 1147.00 528.00" xmlns="http://www.w3.org/2000/svg" xmlns:xlink="http://www.w3.org/1999/xlink">
<g id="graph0" class="graph" transform="scale(1 1) rotate(0) translate(4 524)">
<title>models_diagram</title>
<polygon fill="none" stroke="none" points="-4,4 -4,-524 1143,-524 1143,4 -4,4"/>
<!-- _diagram_info -->
<g id="node1" class="node"><title>_diagram_info</title>
<text text-anchor="start" x="8" y="-431.1" font-family="Times,serif" font-size="13.00">Models diagram</text>
<text text-anchor="start" x="8" y="-417.1" font-family="Times,serif" font-size="13.00">Date: May 03 2017 &#45; 07:36</text>
<text text-anchor="start" x="8" y="-403.1" font-family="Times,serif" font-size="13.00">Migration version: 20170418112049</text>
<text text-anchor="start" x="8" y="-389.1" font-family="Times,serif" font-size="13.00">Generated by RailRoady 1.5.2</text>
<text text-anchor="start" x="8" y="-375.1" font-family="Times,serif" font-size="13.00">http://railroady.prestonlee.com</text>
</g>
<!-- Ability -->
<g id="node2" class="node"><title>Ability</title>
<polygon fill="none" stroke="black" points="232.5,-383.5 232.5,-429.5 287.5,-429.5 287.5,-383.5 232.5,-383.5"/>
<text text-anchor="middle" x="260" y="-414.3" font-family="Times,serif" font-size="14.00">Ability</text>
<polyline fill="none" stroke="black" points="232.5,-406.5 287.5,-406.5 "/>
<text text-anchor="middle" x="260" y="-391.3" font-family="Times,serif" font-size="14.00"> </text>
</g>
<!-- Report -->
<g id="node3" class="node"><title>Report</title>
<path fill="none" stroke="black" d="M138.5,-75.5C138.5,-75.5 245.5,-75.5 245.5,-75.5 251.5,-75.5 257.5,-81.5 257.5,-87.5 257.5,-87.5 257.5,-154.5 257.5,-154.5 257.5,-160.5 251.5,-166.5 245.5,-166.5 245.5,-166.5 138.5,-166.5 138.5,-166.5 132.5,-166.5 126.5,-160.5 126.5,-154.5 126.5,-154.5 126.5,-87.5 126.5,-87.5 126.5,-81.5 132.5,-75.5 138.5,-75.5"/>
<text text-anchor="middle" x="192" y="-151.3" font-family="Times,serif" font-size="14.00">Report</text>
<polyline fill="none" stroke="black" points="126.5,-143.5 257.5,-143.5 "/>
<text text-anchor="start" x="134.5" y="-128.3" font-family="Times,serif" font-size="14.00">id :INTEGER</text>
<text text-anchor="start" x="134.5" y="-113.3" font-family="Times,serif" font-size="14.00">created_at :datetime</text>
<text text-anchor="start" x="134.5" y="-98.3" font-family="Times,serif" font-size="14.00">updated_at :datetime</text>
<text text-anchor="start" x="134.5" y="-83.3" font-family="Times,serif" font-size="14.00">sale_id :integer</text>
</g>
<!-- Sale -->
<g id="node4" class="node"><title>Sale</title>
<path fill="none" stroke="black" d="M317.5,-346C317.5,-346 424.5,-346 424.5,-346 430.5,-346 436.5,-352 436.5,-358 436.5,-358 436.5,-455 436.5,-455 436.5,-461 430.5,-467 424.5,-467 424.5,-467 317.5,-467 317.5,-467 311.5,-467 305.5,-461 305.5,-455 305.5,-455 305.5,-358 305.5,-358 305.5,-352 311.5,-346 317.5,-346"/>
<text text-anchor="middle" x="371" y="-451.8" font-family="Times,serif" font-size="14.00">Sale</text>
<polyline fill="none" stroke="black" points="305.5,-444 436.5,-444 "/>
<text text-anchor="start" x="313.5" y="-428.8" font-family="Times,serif" font-size="14.00">id :INTEGER</text>
<text text-anchor="start" x="313.5" y="-413.8" font-family="Times,serif" font-size="14.00">name :varchar</text>
<text text-anchor="start" x="313.5" y="-398.8" font-family="Times,serif" font-size="14.00">total :decimal</text>
<text text-anchor="start" x="313.5" y="-383.8" font-family="Times,serif" font-size="14.00">user_id :integer</text>
<text text-anchor="start" x="313.5" y="-368.8" font-family="Times,serif" font-size="14.00">created_at :datetime</text>
<text text-anchor="start" x="313.5" y="-353.8" font-family="Times,serif" font-size="14.00">updated_at :datetime</text>
</g>
<!-- Sale&#45;&gt;Report -->
<g id="edge2" class="edge"><title>Sale&#45;&gt;Report</title>
<path fill="none" stroke="#cfaf42" d="M327.821,-338.87C308.746,-309.281 286.129,-273.983 266,-242 252.311,-220.249 237.402,-196.154 224.577,-175.296"/>
<ellipse fill="none" stroke="#cfaf42" cx="330.169" cy="-342.511" rx="4.00002" ry="4.00002"/>
<polygon fill="#cfaf42" stroke="#cfaf42" points="224.452,-175.092 223.053,-164.216 221.835,-170.831 219.218,-166.571 219.218,-166.571 219.218,-166.571 221.835,-170.831 215.384,-168.926 224.452,-175.092 224.452,-175.092"/>
</g>
<!-- Item -->
<g id="node5" class="node"><title>Item</title>
<path fill="none" stroke="black" d="M496.5,-53C496.5,-53 603.5,-53 603.5,-53 609.5,-53 615.5,-59 615.5,-65 615.5,-65 615.5,-177 615.5,-177 615.5,-183 609.5,-189 603.5,-189 603.5,-189 496.5,-189 496.5,-189 490.5,-189 484.5,-183 484.5,-177 484.5,-177 484.5,-65 484.5,-65 484.5,-59 490.5,-53 496.5,-53"/>
<text text-anchor="middle" x="550" y="-173.8" font-family="Times,serif" font-size="14.00">Item</text>
<polyline fill="none" stroke="black" points="484.5,-166 615.5,-166 "/>
<text text-anchor="start" x="492.5" y="-150.8" font-family="Times,serif" font-size="14.00">id :INTEGER</text>
<text text-anchor="start" x="492.5" y="-135.8" font-family="Times,serif" font-size="14.00">product_id :integer</text>
<text text-anchor="start" x="492.5" y="-120.8" font-family="Times,serif" font-size="14.00">sale_id :integer</text>
<text text-anchor="start" x="492.5" y="-105.8" font-family="Times,serif" font-size="14.00">quantity :decimal</text>
<text text-anchor="start" x="492.5" y="-90.8" font-family="Times,serif" font-size="14.00">total :decimal</text>
<text text-anchor="start" x="492.5" y="-75.8" font-family="Times,serif" font-size="14.00">created_at :datetime</text>
<text text-anchor="start" x="492.5" y="-60.8" font-family="Times,serif" font-size="14.00">updated_at :datetime</text>
</g>
<!-- Sale&#45;&gt;Item -->
<g id="edge1" class="edge"><title>Sale&#45;&gt;Item</title>
<path fill="none" stroke="#8aafbf" d="M406.218,-338.877C420.91,-313.294 438.979,-284.4 458,-260 464.956,-251.077 468.983,-250.875 476,-242 486.786,-228.357 497.285,-213.043 506.826,-198.037"/>
<ellipse fill="none" stroke="#8aafbf" cx="404.144" cy="-342.522" rx="4.00002" ry="4.00002"/>
<polygon fill="#8aafbf" stroke="#8aafbf" points="507.02,-197.727 516.142,-191.64 509.674,-193.489 512.328,-189.252 512.328,-189.252 512.328,-189.252 509.674,-193.489 508.514,-186.863 507.02,-197.727 507.02,-197.727"/>
</g>
<!-- PublicActivity::Activity -->
<g id="node11" class="node"><title>PublicActivity::Activity</title>
<ellipse fill="none" stroke="black" cx="371" cy="-121" rx="95.5831" ry="18"/>
<text text-anchor="middle" x="371" y="-117.3" font-family="Times,serif" font-size="14.00">PublicActivity::Activity</text>
</g>
<!-- Sale&#45;&gt;PublicActivity::Activity -->
<g id="edge3" class="edge"><title>Sale&#45;&gt;PublicActivity::Activity</title>
<path fill="none" stroke="#fc2941" d="M371,-337.495C371,-277.31 371,-192.544 371,-149.46"/>
<ellipse fill="none" stroke="#fc2941" cx="371" cy="-341.723" rx="4" ry="4"/>
<polygon fill="#fc2941" stroke="#fc2941" points="371,-149.2 375.5,-139.2 371,-144.2 371,-139.2 371,-139.2 371,-139.2 371,-144.2 366.5,-139.2 371,-149.2 371,-149.2"/>
<text text-anchor="middle" x="395.5" y="-263.8" font-family="Times,serif" font-size="14.00">activities</text>
</g>
<!-- ApplicationRecord -->
<g id="node6" class="node"><title>ApplicationRecord</title>
<ellipse fill="none" stroke="black" cx="694" cy="-406.5" rx="77.1866" ry="18"/>
<text text-anchor="middle" x="694" y="-402.8" font-family="Times,serif" font-size="14.00">ApplicationRecord</text>
</g>
<!-- Role -->
<g id="node7" class="node"><title>Role</title>
<path fill="none" stroke="black" d="M801.5,-361C801.5,-361 908.5,-361 908.5,-361 914.5,-361 920.5,-367 920.5,-373 920.5,-373 920.5,-440 920.5,-440 920.5,-446 914.5,-452 908.5,-452 908.5,-452 801.5,-452 801.5,-452 795.5,-452 789.5,-446 789.5,-440 789.5,-440 789.5,-373 789.5,-373 789.5,-367 795.5,-361 801.5,-361"/>
<text text-anchor="middle" x="855" y="-436.8" font-family="Times,serif" font-size="14.00">Role</text>
<polyline fill="none" stroke="black" points="789.5,-429 920.5,-429 "/>
<text text-anchor="start" x="797.5" y="-413.8" font-family="Times,serif" font-size="14.00">id :INTEGER</text>
<text text-anchor="start" x="797.5" y="-398.8" font-family="Times,serif" font-size="14.00">name :varchar</text>
<text text-anchor="start" x="797.5" y="-383.8" font-family="Times,serif" font-size="14.00">created_at :datetime</text>
<text text-anchor="start" x="797.5" y="-368.8" font-family="Times,serif" font-size="14.00">updated_at :datetime</text>
</g>
<!-- User -->
<g id="node10" class="node"><title>User</title>
<path fill="none" stroke="black" d="M767,-0.5C767,-0.5 943,-0.5 943,-0.5 949,-0.5 955,-6.5 955,-12.5 955,-12.5 955,-229.5 955,-229.5 955,-235.5 949,-241.5 943,-241.5 943,-241.5 767,-241.5 767,-241.5 761,-241.5 755,-235.5 755,-229.5 755,-229.5 755,-12.5 755,-12.5 755,-6.5 761,-0.5 767,-0.5"/>
<text text-anchor="middle" x="855" y="-226.3" font-family="Times,serif" font-size="14.00">User</text>
<polyline fill="none" stroke="black" points="755,-218.5 955,-218.5 "/>
<text text-anchor="start" x="763" y="-203.3" font-family="Times,serif" font-size="14.00">id :INTEGER</text>
<text text-anchor="start" x="763" y="-188.3" font-family="Times,serif" font-size="14.00">email :varchar</text>
<text text-anchor="start" x="763" y="-173.3" font-family="Times,serif" font-size="14.00">encrypted_password :varchar</text>
<text text-anchor="start" x="763" y="-158.3" font-family="Times,serif" font-size="14.00">reset_password_token :varchar</text>
<text text-anchor="start" x="763" y="-143.3" font-family="Times,serif" font-size="14.00">reset_password_sent_at :datetime</text>
<text text-anchor="start" x="763" y="-128.3" font-family="Times,serif" font-size="14.00">remember_created_at :datetime</text>
<text text-anchor="start" x="763" y="-113.3" font-family="Times,serif" font-size="14.00">sign_in_count :integer</text>
<text text-anchor="start" x="763" y="-98.3" font-family="Times,serif" font-size="14.00">current_sign_in_at :datetime</text>
<text text-anchor="start" x="763" y="-83.3" font-family="Times,serif" font-size="14.00">last_sign_in_at :datetime</text>
<text text-anchor="start" x="763" y="-68.3" font-family="Times,serif" font-size="14.00">current_sign_in_ip :varchar</text>
<text text-anchor="start" x="763" y="-53.3" font-family="Times,serif" font-size="14.00">last_sign_in_ip :varchar</text>
<text text-anchor="start" x="763" y="-38.3" font-family="Times,serif" font-size="14.00">created_at :datetime</text>
<text text-anchor="start" x="763" y="-23.3" font-family="Times,serif" font-size="14.00">updated_at :datetime</text>
<text text-anchor="start" x="763" y="-8.3" font-family="Times,serif" font-size="14.00">role_id :integer</text>
</g>
<!-- Role&#45;&gt;User -->
<g id="edge4" class="edge"><title>Role&#45;&gt;User</title>
<path fill="none" stroke="#551b09" d="M855,-352.736C855,-324.105 855,-287.342 855,-251.615"/>
<ellipse fill="none" stroke="#551b09" cx="855" cy="-356.891" rx="4" ry="4"/>
<polygon fill="#551b09" stroke="#551b09" points="855,-251.573 859.5,-241.573 855,-246.573 855,-241.573 855,-241.573 855,-241.573 855,-246.573 850.5,-241.573 855,-251.573 855,-251.573"/>
</g>
<!-- AdminUser -->
<g id="node8" class="node"><title>AdminUser</title>
<path fill="none" stroke="black" d="M951,-293.5C951,-293.5 1127,-293.5 1127,-293.5 1133,-293.5 1139,-299.5 1139,-305.5 1139,-305.5 1139,-507.5 1139,-507.5 1139,-513.5 1133,-519.5 1127,-519.5 1127,-519.5 951,-519.5 951,-519.5 945,-519.5 939,-513.5 939,-507.5 939,-507.5 939,-305.5 939,-305.5 939,-299.5 945,-293.5 951,-293.5"/>
<text text-anchor="middle" x="1039" y="-504.3" font-family="Times,serif" font-size="14.00">AdminUser</text>
<polyline fill="none" stroke="black" points="939,-496.5 1139,-496.5 "/>
<text text-anchor="start" x="947" y="-481.3" font-family="Times,serif" font-size="14.00">id :INTEGER</text>
<text text-anchor="start" x="947" y="-466.3" font-family="Times,serif" font-size="14.00">email :varchar</text>
<text text-anchor="start" x="947" y="-451.3" font-family="Times,serif" font-size="14.00">encrypted_password :varchar</text>
<text text-anchor="start" x="947" y="-436.3" font-family="Times,serif" font-size="14.00">reset_password_token :varchar</text>
<text text-anchor="start" x="947" y="-421.3" font-family="Times,serif" font-size="14.00">reset_password_sent_at :datetime</text>
<text text-anchor="start" x="947" y="-406.3" font-family="Times,serif" font-size="14.00">remember_created_at :datetime</text>
<text text-anchor="start" x="947" y="-391.3" font-family="Times,serif" font-size="14.00">sign_in_count :integer</text>
<text text-anchor="start" x="947" y="-376.3" font-family="Times,serif" font-size="14.00">current_sign_in_at :datetime</text>
<text text-anchor="start" x="947" y="-361.3" font-family="Times,serif" font-size="14.00">last_sign_in_at :datetime</text>
<text text-anchor="start" x="947" y="-346.3" font-family="Times,serif" font-size="14.00">current_sign_in_ip :varchar</text>
<text text-anchor="start" x="947" y="-331.3" font-family="Times,serif" font-size="14.00">last_sign_in_ip :varchar</text>
<text text-anchor="start" x="947" y="-316.3" font-family="Times,serif" font-size="14.00">created_at :datetime</text>
<text text-anchor="start" x="947" y="-301.3" font-family="Times,serif" font-size="14.00">updated_at :datetime</text>
</g>
<!-- Product -->
<g id="node9" class="node"><title>Product</title>
<path fill="none" stroke="black" d="M479.5,-331C479.5,-331 586.5,-331 586.5,-331 592.5,-331 598.5,-337 598.5,-343 598.5,-343 598.5,-470 598.5,-470 598.5,-476 592.5,-482 586.5,-482 586.5,-482 479.5,-482 479.5,-482 473.5,-482 467.5,-476 467.5,-470 467.5,-470 467.5,-343 467.5,-343 467.5,-337 473.5,-331 479.5,-331"/>
<text text-anchor="middle" x="533" y="-466.8" font-family="Times,serif" font-size="14.00">Product</text>
<polyline fill="none" stroke="black" points="467.5,-459 598.5,-459 "/>
<text text-anchor="start" x="475.5" y="-443.8" font-family="Times,serif" font-size="14.00">id :INTEGER</text>
<text text-anchor="start" x="475.5" y="-428.8" font-family="Times,serif" font-size="14.00">code :varchar</text>
<text text-anchor="start" x="475.5" y="-413.8" font-family="Times,serif" font-size="14.00">name :varchar</text>
<text text-anchor="start" x="475.5" y="-398.8" font-family="Times,serif" font-size="14.00">price :decimal</text>
<text text-anchor="start" x="475.5" y="-383.8" font-family="Times,serif" font-size="14.00">user_id :integer</text>
<text text-anchor="start" x="475.5" y="-368.8" font-family="Times,serif" font-size="14.00">created_at :datetime</text>
<text text-anchor="start" x="475.5" y="-353.8" font-family="Times,serif" font-size="14.00">updated_at :datetime</text>
<text text-anchor="start" x="475.5" y="-338.8" font-family="Times,serif" font-size="14.00">Catagory :varchar</text>
</g>
<!-- Product&#45;&gt;Item -->
<g id="edge5" class="edge"><title>Product&#45;&gt;Item</title>
<path fill="none" stroke="#8b8218" d="M537.975,-322.54C540.314,-283.537 543.085,-237.316 545.378,-199.084"/>
<ellipse fill="none" stroke="#8b8218" cx="537.728" cy="-326.65" rx="4" ry="4"/>
<polygon fill="#8b8218" stroke="#8b8218" points="545.381,-199.019 550.472,-189.306 545.681,-194.028 545.98,-189.037 545.98,-189.037 545.98,-189.037 545.681,-194.028 541.488,-188.767 545.381,-199.019 545.381,-199.019"/>
</g>
<!-- Product&#45;&gt;PublicActivity::Activity -->
<g id="edge6" class="edge"><title>Product&#45;&gt;PublicActivity::Activity</title>
<path fill="none" stroke="#759c30" d="M486.25,-323.687C452.179,-264.063 408.198,-187.097 385.692,-147.712"/>
<ellipse fill="none" stroke="#759c30" cx="488.24" cy="-327.17" rx="4.00002" ry="4.00002"/>
<polygon fill="#759c30" stroke="#759c30" points="385.671,-147.675 384.617,-136.76 383.191,-143.334 380.71,-138.992 380.71,-138.992 380.71,-138.992 383.191,-143.334 376.803,-141.225 385.671,-147.675 385.671,-147.675"/>
<text text-anchor="middle" x="481.5" y="-263.8" font-family="Times,serif" font-size="14.00">activities</text>
</g>
</g>
</svg>
