<?xml version="1.0" encoding="UTF-8" standalone="no"?>
<!DOCTYPE svg PUBLIC "-//W3C//DTD SVG 1.1//EN"
 "http://www.w3.org/Graphics/SVG/1.1/DTD/svg11.dtd">
<!-- Generated by graphviz version 2.38.0 (20140413.2041)
 -->
<!-- Title: models_diagram Pages: 1 -->
<svg width="876pt" height="173pt"
 viewBox="0.00 0.00 876.00 173.00" xmlns="http://www.w3.org/2000/svg" xmlns:xlink="http://www.w3.org/1999/xlink">
<g id="graph0" class="graph" transform="scale(1 1) rotate(0) translate(4 169)">
<title>models_diagram</title>
<polygon fill="none" stroke="none" points="-4,4 -4,-169 871.995,-169 871.995,4 -4,4"/>
<!-- _diagram_info -->
<g id="node1" class="node"><title>_diagram_info</title>
<text text-anchor="start" x="8" y="-150.6" font-family="Times,serif" font-size="13.00">Models diagram</text>
<text text-anchor="start" x="8" y="-136.6" font-family="Times,serif" font-size="13.00">Date: May 03 2017 &#45; 07:36</text>
<text text-anchor="start" x="8" y="-122.6" font-family="Times,serif" font-size="13.00">Migration version: 20170418112049</text>
<text text-anchor="start" x="8" y="-108.6" font-family="Times,serif" font-size="13.00">Generated by RailRoady 1.5.2</text>
<text text-anchor="start" x="8" y="-94.6" font-family="Times,serif" font-size="13.00">http://railroady.prestonlee.com</text>
</g>
<!-- Ability -->
<g id="node2" class="node"><title>Ability</title>
<polygon fill="none" stroke="black" points="287.5,-144 232.5,-144 232.5,-108 287.5,-108 287.5,-144"/>
<text text-anchor="middle" x="260" y="-122.3" font-family="Times,serif" font-size="14.00">Ability</text>
</g>
<!-- Report -->
<g id="node3" class="node"><title>Report</title>
<ellipse fill="none" stroke="black" cx="205" cy="-18" rx="34.394" ry="18"/>
<text text-anchor="middle" x="205" y="-14.3" font-family="Times,serif" font-size="14.00">Report</text>
</g>
<!-- Sale -->
<g id="node4" class="node"><title>Sale</title>
<ellipse fill="none" stroke="black" cx="333" cy="-126" rx="27" ry="18"/>
<text text-anchor="middle" x="333" y="-122.3" font-family="Times,serif" font-size="14.00">Sale</text>
</g>
<!-- Sale&#45;&gt;Report -->
<g id="edge2" class="edge"><title>Sale&#45;&gt;Report</title>
<path fill="none" stroke="#aaf749" d="M313.722,-104.023C308.174,-98.3168 301.998,-92.2628 296,-87 276.126,-69.5611 252.111,-51.7386 233.743,-38.7167"/>
<ellipse fill="none" stroke="#aaf749" cx="316.693" cy="-107.133" rx="4.00002" ry="4.00002"/>
<polygon fill="#aaf749" stroke="#aaf749" points="233.406,-38.4798 227.809,-29.05 229.314,-35.6062 225.222,-32.7325 225.222,-32.7325 225.222,-32.7325 229.314,-35.6062 222.636,-36.4151 233.406,-38.4798 233.406,-38.4798"/>
</g>
<!-- Item -->
<g id="node5" class="node"><title>Item</title>
<ellipse fill="none" stroke="black" cx="494" cy="-18" rx="27.0966" ry="18"/>
<text text-anchor="middle" x="494" y="-14.3" font-family="Times,serif" font-size="14.00">Item</text>
</g>
<!-- Sale&#45;&gt;Item -->
<g id="edge1" class="edge"><title>Sale&#45;&gt;Item</title>
<path fill="none" stroke="#79797d" d="M351.593,-104.315C366.438,-88.7911 388.427,-67.9048 411,-54 430.045,-42.2683 437.428,-44.782 458,-36 459.617,-35.3097 461.268,-34.5888 462.931,-33.8501"/>
<ellipse fill="none" stroke="#79797d" cx="348.814" cy="-107.27" rx="4.00002" ry="4.00002"/>
<polygon fill="#79797d" stroke="#79797d" points="463.322,-33.6711 474.288,-33.6079 467.87,-31.593 472.418,-29.515 472.418,-29.515 472.418,-29.515 467.87,-31.593 470.548,-25.422 463.322,-33.6711 463.322,-33.6711"/>
</g>
<!-- PublicActivity::Activity -->
<g id="node11" class="node"><title>PublicActivity::Activity</title>
<ellipse fill="none" stroke="black" cx="353" cy="-18" rx="95.5831" ry="18"/>
<text text-anchor="middle" x="353" y="-14.3" font-family="Times,serif" font-size="14.00">PublicActivity::Activity</text>
</g>
<!-- Sale&#45;&gt;PublicActivity::Activity -->
<g id="edge3" class="edge"><title>Sale&#45;&gt;PublicActivity::Activity</title>
<path fill="none" stroke="#39f56c" d="M330.443,-99.705C329.777,-85.9697 330.127,-68.8153 334,-54 334.779,-51.0191 335.863,-48.0155 337.122,-45.0874"/>
<ellipse fill="none" stroke="#39f56c" cx="330.707" cy="-103.772" rx="4" ry="4"/>
<polygon fill="#39f56c" stroke="#39f56c" points="337.131,-45.0679 345.609,-38.1127 339.355,-40.5896 341.579,-36.1113 341.579,-36.1113 341.579,-36.1113 339.355,-40.5896 337.548,-34.1099 337.131,-45.0679 337.131,-45.0679"/>
<text text-anchor="middle" x="358.5" y="-57.8" font-family="Times,serif" font-size="14.00">activities</text>
</g>
<!-- ApplicationRecord -->
<g id="node6" class="node"><title>ApplicationRecord</title>
<ellipse fill="none" stroke="black" cx="596" cy="-126" rx="77.1866" ry="18"/>
<text text-anchor="middle" x="596" y="-122.3" font-family="Times,serif" font-size="14.00">ApplicationRecord</text>
</g>
<!-- Role -->
<g id="node7" class="node"><title>Role</title>
<ellipse fill="none" stroke="black" cx="719" cy="-126" rx="27.0966" ry="18"/>
<text text-anchor="middle" x="719" y="-122.3" font-family="Times,serif" font-size="14.00">Role</text>
</g>
<!-- User -->
<g id="node10" class="node"><title>User</title>
<ellipse fill="none" stroke="black" cx="719" cy="-18" rx="27.0966" ry="18"/>
<text text-anchor="middle" x="719" y="-14.3" font-family="Times,serif" font-size="14.00">User</text>
</g>
<!-- Role&#45;&gt;User -->
<g id="edge4" class="edge"><title>Role&#45;&gt;User</title>
<path fill="none" stroke="#b73e63" d="M719,-99.7948C719,-83.735 719,-62.9268 719,-46.4496"/>
<ellipse fill="none" stroke="#b73e63" cx="719" cy="-103.969" rx="4" ry="4"/>
<polygon fill="#b73e63" stroke="#b73e63" points="719,-46.3406 723.5,-36.3406 719,-41.3406 719,-36.3406 719,-36.3406 719,-36.3406 719,-41.3406 714.5,-36.3407 719,-46.3406 719,-46.3406"/>
</g>
<!-- AdminUser -->
<g id="node8" class="node"><title>AdminUser</title>
<ellipse fill="none" stroke="black" cx="816" cy="-126" rx="51.9908" ry="18"/>
<text text-anchor="middle" x="816" y="-122.3" font-family="Times,serif" font-size="14.00">AdminUser</text>
</g>
<!-- Product -->
<g id="node9" class="node"><title>Product</title>
<ellipse fill="none" stroke="black" cx="462" cy="-126" rx="38.1938" ry="18"/>
<text text-anchor="middle" x="462" y="-122.3" font-family="Times,serif" font-size="14.00">Product</text>
</g>
<!-- Product&#45;&gt;Item -->
<g id="edge5" class="edge"><title>Product&#45;&gt;Item</title>
<path fill="none" stroke="#9a89df" d="M470.206,-100.166C473.352,-90.4677 476.922,-79.2383 480,-69 482.248,-61.5218 484.578,-53.3795 486.676,-45.8788"/>
<ellipse fill="none" stroke="#9a89df" cx="468.924" cy="-104.093" rx="4.00001" ry="4.00001"/>
<polygon fill="#9a89df" stroke="#9a89df" points="486.696,-45.808 493.702,-37.3723 488.031,-40.9895 489.365,-36.1709 489.365,-36.1709 489.365,-36.1709 488.031,-40.9895 485.029,-34.9696 486.696,-45.808 486.696,-45.808"/>
</g>
<!-- Product&#45;&gt;PublicActivity::Activity -->
<g id="edge6" class="edge"><title>Product&#45;&gt;PublicActivity::Activity</title>
<path fill="none" stroke="#6ab785" d="M440.13,-103.732C422.121,-86.219 396.591,-61.391 377.819,-43.1363"/>
<ellipse fill="none" stroke="#6ab785" cx="443.049" cy="-106.571" rx="4.00002" ry="4.00002"/>
<polygon fill="#6ab785" stroke="#6ab785" points="377.399,-42.7275 373.367,-32.5297 373.815,-39.2417 370.23,-35.7558 370.23,-35.7558 370.23,-35.7558 373.815,-39.2417 367.093,-38.9819 377.399,-42.7275 377.399,-42.7275"/>
<text text-anchor="middle" x="428.5" y="-57.8" font-family="Times,serif" font-size="14.00">activities</text>
</g>
</g>
</svg>
